<svg xmlns="http://www.w3.org/2000/svg" width="200" height="154" xmlns:v="https://vecta.io/nano"><g fill="none" stroke-width=".3"><use href="#B" stroke="#fefefe"/><use href="#C" stroke="#ecf6f7"/><use href="#D" stroke="#5096b3"/><use href="#E" stroke="#d4e9ee"/><use href="#F" stroke="#d98c4e"/><use href="#G" stroke="#6bafc5"/><use href="#H" stroke="#82442a"/><use href="#I" stroke="#fafcfc"/><use href="#J" stroke="#8bc4d6"/><use href="#K" stroke="#4c2317"/><use href="#L" stroke="#86c2d5"/><use href="#M" stroke="#d3844a"/><use href="#N" stroke="#b96835"/><use href="#O" stroke="#8ac4d6"/><use href="#P" stroke="#d58343"/><use href="#Q" stroke="#804024"/><use href="#R" stroke="#d18046"/><use href="#S" stroke="#b86534"/><use href="#T" stroke="#db8a4a"/><use href="#U" stroke="#954b2a"/><use href="#V" stroke="#e3a263"/><use href="#W" stroke="#7fbdd2"/><use href="#X" stroke="#dfeff2"/><use href="#Y" stroke="#c37039"/><use href="#Z" stroke="#c0783d"/><use href="#a" stroke="#471f13"/><use href="#b" stroke="#2c7294"/><use href="#c" stroke="#733621"/><use href="#d" stroke="#240b06"/><use href="#e" stroke="#70b5cb"/><use href="#f" stroke="#c88044"/><use href="#g" stroke="#468ca9"/><use href="#h" stroke="#67abc4"/><use href="#i" stroke="#39170f"/><use href="#j" stroke="#c4dde4"/><use href="#k" stroke="#68aac4"/><use href="#l" stroke="#abccd8"/><use href="#m" stroke="#b25f32"/><use href="#n" stroke="#bd743b"/><use href="#o" stroke="#270d09"/><use href="#p" stroke="#c67e41"/><use href="#q" stroke="#8bb6c8"/><use href="#r" stroke="#ab5d2b"/><use href="#s" stroke="#4a8eae"/><use href="#t" stroke="#773a24"/><use href="#u" stroke="#0b4161"/><use href="#v" stroke="#256788"/><use href="#w" stroke="#488cac"/><use href="#x" stroke="#200b09"/><use href="#y" stroke="#fefefe"/><use href="#z" stroke="#c0783e"/><use href="#AA" stroke="#78381e"/><use href="#AB" stroke="#441b10"/><use href="#AC" stroke="#75a4bb"/><use href="#AD" stroke="#c78044"/><use href="#AE" stroke="#140304"/><use href="#AF" stroke="#206183"/><use href="#AG" stroke="#578aa5"/><use href="#AH" stroke="#170403"/><use href="#AI" stroke="#396a87"/><use href="#AJ" stroke="#32120b"/><use href="#AK" stroke="#6290a8"/><use href="#AL" stroke="#8fb6c7"/><use href="#AM" stroke="#d8eaed"/><use href="#AN" stroke="#3a7b98"/><use href="#AO" stroke="#5198b4"/><use href="#AP" stroke="#300e08"/><use href="#AQ" stroke="#63a5bd"/><use href="#AR" stroke="#549bb8"/><use href="#AS" stroke="#f9fcfb"/><use href="#AT" stroke="#7bbace"/><use href="#AU" stroke="#7ebed1"/><use href="#AV" stroke="#89c4d6"/><use href="#AW" stroke="#3d809d"/><use href="#AX" stroke="#7dbcd0"/></g><use href="#B" fill="#fefefe"/><use href="#C" fill="#ecf6f7"/><use href="#D" fill="#5096b3"/><use href="#E" fill="#d4e9ee"/><use href="#F" fill="#d98c4e"/><use href="#G" fill="#6bafc5"/><use href="#H" fill="#82442a"/><use href="#I" fill="#fafcfc"/><use href="#J" fill="#8bc4d6"/><use href="#K" fill="#4c2317"/><use href="#L" fill="#86c2d5"/><use href="#M" fill="#d3844a"/><use href="#N" fill="#b96835"/><use href="#O" fill="#8ac4d6"/><use href="#P" fill="#d58343"/><use href="#Q" fill="#804024"/><use href="#R" fill="#d18046"/><use href="#S" fill="#b86534"/><use href="#T" fill="#db8a4a"/><use href="#U" fill="#954b2a"/><use href="#V" fill="#e3a263"/><use href="#W" fill="#7fbdd2"/><use href="#X" fill="#dfeff2"/><use href="#Y" fill="#c37039"/><use href="#Z" fill="#c0783d"/><use href="#a" fill="#471f13"/><use href="#b" fill="#2c7294"/><use href="#c" fill="#733621"/><use href="#d" fill="#240b06"/><use href="#e" fill="#70b5cb"/><use href="#f" fill="#c88044"/><use href="#g" fill="#468ca9"/><use href="#h" fill="#67abc4"/><use href="#i" fill="#39170f"/><use href="#j" fill="#c4dde4"/><use href="#k" fill="#68aac4"/><use href="#l" fill="#abccd8"/><use href="#m" fill="#b25f32"/><use href="#n" fill="#bd743b"/><use href="#o" fill="#270d09"/><use href="#p" fill="#c67e41"/><use href="#q" fill="#8bb6c8"/><use href="#r" fill="#ab5d2b"/><use href="#s" fill="#4a8eae"/><use href="#t" fill="#773a24"/><use href="#u" fill="#0b4161"/><use href="#v" fill="#256788"/><use href="#w" fill="#488cac"/><use href="#x" fill="#200b09"/><use href="#y" fill="#fefefe"/><use href="#z" fill="#c0783e"/><use href="#AA" fill="#78381e"/><use href="#AB" fill="#441b10"/><use href="#AC" fill="#75a4bb"/><use href="#AD" fill="#c78044"/><use href="#AE" fill="#140304"/><use href="#AF" fill="#206183"/><use href="#AG" fill="#578aa5"/><use href="#AH" fill="#170403"/><use href="#AI" fill="#396a87"/><use href="#AJ" fill="#32120b"/><use href="#AK" fill="#6290a8"/><use href="#AL" fill="#8fb6c7"/><use href="#AM" fill="#d8eaed"/><use href="#AN" fill="#3a7b98"/><use href="#AO" fill="#5198b4"/><use href="#AP" fill="#300e08"/><use href="#AQ" fill="#63a5bd"/><use href="#AR" fill="#549bb8"/><use href="#AS" fill="#f9fcfb"/><use href="#AT" fill="#7bbace"/><use href="#AU" fill="#7ebed1"/><use href="#AV" fill="#89c4d6"/><use href="#AW" fill="#3d809d"/><use href="#AX" fill="#7dbcd0"/><defs ><path id="B" d="M0 70c3.23-10.82 7.45-22.43 21-25 2.07-.39 3.61-1.26 6-1 .49.05 1 0 1 0 7.37-5.54-8.54-21.12-7-27 4.03 2.35 4.63 7.36 7 11 1.27-5.11 13.69-5.02 18.22-6.78C50.76 19.47 62.39 19.89 68 18c-2.07-1.27 4.34-1.46 9.25-2.19 4.9-.74 11.97-4.22 17.04-4.52 5.08-.29 11.75-3.84 16.78-4.22 5.04-.38 7.78 7.8 7.93 11.93-.11-.43 1.22 2.26 1 2 7.97-1.48 18.71-1.19 27-2 6.65-.65 11.93-2.92 18 0 1.02.49 2.23 1.67 3 2 4.84 2.07 18.51 4.84 18 13-.04.63-1.58 3.72-2 4 4.46-.62 3.34-1.11 6 2 .69.81 1.76.7 2 2 .09.48-.17 1.56 0 2 .53 1.4 1.4 3.35 2 5 1.07 2.94 4.08 8.13 2 11-.22.3-.66.85-1 1-.45.48-1.45 2.34-1 3 1.41.06 1.18.07 2 1 2.85 3.25-1.14 15.52-3 19-8.09 15.16-25.28 14.53-40 19-2.02.61-3.88 1.59-6 2 2.71 2.96 7.34 4.05 10 7 2.67 1.53 6.33 3.68 9 5 9 4.45 22.44 8.3 26 18-29.36 7.18-60.03 11.75-89 19h97V0H0v70z"/><path id="C" d="M28 28c1.46 3.31 2.56 6.98 4 10 2.26-6.86 15.22-4.81 21.01-6.99 5.79-2.19 14.96-2.82 20.73-5.27S91.01 22.2 97 21c6-1.2 18.04-7.13 22-2-.15-4.13-2.89-12.31-7.93-11.93-5.03.38-11.7 3.93-16.78 4.22-5.07.3-12.14 3.78-17.04 4.52-4.91.73-11.32.92-9.25 2.19-5.61 1.89-17.24 1.47-21.78 3.22C41.69 22.98 29.27 22.89 28 28z"/><path id="D" d="M28 44c3.7-1.31 8.93-1.54 13-1-1.52-.59-8.35-1.99-9-3-.23-.35.19-1.59 0-2-1.44-3.02-2.54-6.69-4-10-2.37-3.64-2.97-8.65-7-11-1.54 5.88 14.37 21.46 7 27z"/><path id="E" d="M32 38c.19.41-.23 1.65 0 2 6.06 2.08 14.81-4.63 21.67-4.33s15.12-4.28 22.34-4.66 14.89-4.34 22.21-4.79c7.33-.45 15.14-3.99 21.78-5.22.22.26-1.11-2.43-1-2-3.96-5.13-16 .8-22 2-5.99 1.2-17.49 2.29-23.26 4.74s-14.94 3.08-20.73 5.27C47.22 33.19 34.26 31.14 32 38z"/><path id="F" d="M147 19c7.81 2.27 16.34 11.87 20 19 1.27-1.47 6.86-.52 9.07-1.93s7.36-1.1 9.93-2.07c.51-8.16-13.16-10.93-18-13-4.31-.31-7.78 1.01-12 1 2.2-2.42 6.26-1.31 9-3-6.07-2.92-11.35-.65-18 0z"/><path id="G" d="M120 21c-6.64 1.23-14.45 4.77-21.78 5.22-7.32.45-14.99 4.41-22.21 4.79s-15.48 4.96-22.34 4.66S38.06 42.08 32 40c.65 1.01 7.48 2.41 9 3 8.98 3.48 18.36 6.41 23 16 1.74 2.59 3.63 4.9 5 8-.09-.64.43-2.44 0-4-6.34-11.13-15.01-20.2-28-23 16.47-1.68 33.5-6.92 49.67-9.33 16.18-2.41 33.17-8.98 49.33-9.67s26.01 17.07 29 30c.77 2.75 1.78 5.7 2 9 .19-.42 1.87-.73 2-1 1.04-2.17-.56-5.07-1-7-.31-1.37-.72-2.66-1-4-.1-.48.22-1.86 0-2-1.09-.67-.58-.88-1-2-.51-1.37-1.32-2.71-2-4-.36-.68-.66-1.33-1-2-3.66-7.13-12.19-16.73-20-19-8.29.81-19.03.52-27 2z"/><path id="H" d="M168 21c-.77-.33-1.98-1.51-3-2-2.74 1.69-6.8.58-9 3 4.22.01 7.69-1.31 12-1z"/><path id="I" d="M69 63c.51.9 1.48 1.88 2 3 3.08 2.64 8.47-1.39 12 1-1.2-5.18 7.86-1.34 9-4 1.28-.36 1.28-1.06 3 0 .36.22 1 0 1 0 2.74-6.01 17.83-3.08 23.67-6.33 5.84-3.24 18.05-2.25 24.33-5.67 1.83 1.83.96 4.9-2 4 2.9.11 9.2 2.57 12.08-.06 2.88-2.64 13.16-.91 14.92-3.94-2.99-12.93-12.84-30.69-29-30s-33.15 7.26-49.33 9.67C74.5 33.08 57.47 38.32 41 40c12.99 2.8 21.66 11.87 28 23m68-36c-19.45 6.46-42.47 11.04-63 13 19.55-6.16 42.52-10.41 63-13m9 12c-5.7-1.07-15.16 6.86-18 0 5.52.74 16.1-6.83 18 0m-23 4c-5.99 2.6-15.43 4.16-22 5-6.57.83-14.21 6.45-17 0 12.08.43 27.49-9.11 39-5z"/><path id="J" d="M137 27c-20.48 2.59-43.45 6.84-63 13 20.53-1.96 43.55-6.54 63-13z"/><path id="K" d="M167 38l1 2c3.5 1.68 12.26-1.48 16-2 .42-.28 1.96-3.37 2-4-2.57.97-7.72.66-9.93 2.07s-7.8.46-9.07 1.93z"/><path id="L" d="M146 39c-1.9-6.83-12.48.74-18 0 2.84 6.86 12.3-1.07 18 0z"/><path id="M" d="M184 38c-3.74.52-12.5 3.68-16 2 .68 1.29 1.49 2.63 2 4 .91-1.64 7.95-1.45 10.01-1.99 2.06-.55 7.7-2.6 9.99-2.01-2.66-3.11-1.54-2.62-6-2z"/><path id="N" d="M170 44c.42 1.12-.09 1.33 1 2 2.36-1.18 7.43-1.29 10.07-1.93 2.65-.63 8.21-3.36 10.93-2.07-.24-1.3-1.31-1.19-2-2-2.29-.59-7.93 1.46-9.99 2.01-2.06.54-9.1.35-10.01 1.99z"/><path id="O" d="M123 43c-11.51-4.11-26.92 5.43-39 5 2.79 6.45 10.43.83 17 0 6.57-.84 16.01-2.4 22-5z"/><path id="P" d="M171 46c.22.14-.1 1.52 0 2 2.57 1.09 7.41-1.11 10.07-1.93 2.67-.81 8.4-.81 10.93-2.07-.17-.44.09-1.52 0-2-2.72-1.29-8.28 1.44-10.93 2.07-2.64.64-7.71.75-10.07 1.93z"/><path id="Q" d="M28 44s-.51.05-1 0c2.62-.07 6.64.53 10 1-4.19 2.17-12.07 3.69-16 0C7.45 47.57 3.23 59.18 0 70v8c1.25.3 1.71 1.83 3 2-4.15-15 10.35-36.01 25.68-28.68S46.68 73.7 50 88c3.67-5.76 12.44-1.51 18-4-.08-3.73.43-7.61-1-11-1.4 3.62-13.69 2.51-16 6-3.09-7.81 9.8-6.18 15-8-.17-4.63.21-7.43-2-12-4.64-9.59-14.02-12.52-23-16-4.07-.54-9.3-.31-13 1m29 12c3.27 3.79 7.05 7.84 8 13-5.07 1.99-10.81 1.4-16 3 .3-3.06-2-5.32-3-8 3.12-2.21 5.61-5.91 10-5-.74-2.2-4.33.31-5-2-8.44.24-12.93-2.7-19-8 3.66-2.45 8.67-2.98 13-2-2.95 2.48 10.51 2.7 12 9z"/><path id="R" d="M21 45c3.93 3.69 11.81 2.17 16 0-3.36-.47-7.38-1.07-10-1-2.39-.26-3.93.61-6 1z"/><path id="S" d="M171 48l1 4c4.32 7.13 16.35-5.73 22-3-.6-1.65-1.47-3.6-2-5-2.53 1.26-8.26 1.26-10.93 2.07-2.66.82-7.5 3.02-10.07 1.93z"/><path id="T" d="M51 57c1.89-.05 4.92.76 6-1-1.49-6.3-14.95-6.52-12-9-4.33-.98-9.34-.45-13 2 6.07 5.3 10.56 8.24 19 8z"/><path id="U" d="M172 52c.44 1.93 2.04 4.83 1 7 .28.93 1.76 2.44 1 4 7.38.14 15.27-5.3 22-3 2.08-2.87-.93-8.06-2-11-5.65-2.73-17.68 10.13-22 3z"/><path id="V" d="M0 78v5c1.13-.57 1.12-2.52 3-2 .17 14.59 5.09 26.55 16.25 36.75C30.41 127.96 47.41 116.19 49 103c-.2-.4 0-1 0-1-1.11-1.72 1-9.87 1-13v-1c-3.32-14.3-5.99-29.35-21.32-36.68S-1.15 65 3 80c-1.29-.17-1.75-1.7-3-2m43 19c-2.81-12.73-1.19-23.11-13.25-32.75S4.93 70.16 9 84c-5.71-12.38 6.29-30.83 19.23-22.23S43.11 82.57 43 97m-27 2c3.84 1.73 8.21 11.69 16 7-3.94-2.99 4.17-5.17 4.77-11.23.6-6.05-.15-13.14-3.08-18.46C30.77 70.98 25.6 66.47 19 68c2.46-2.98 7.85.84 10-1-4.07-2.85-9.93-2.78-14 0 5.47 1.77-2.57 4.58-2 10-4.46-11.58 9.93-18.37 18.25-9.25 8.32 9.13 6.98 17.96 5.44 29.94C35.16 109.68 19.81 111.59 16 99m16-18c-1.73-7.71-15.07-12.1-15-1-4.53-11.21 16.6-10 15 1m-9 14c7.7 6.74 10.41-7.19 9-13 1.77 2.98 1.13 2.68 3 0-1.26 4.78-.69 11.44-4.77 15.23-4.09 3.79-12.1-2.69-12.23-7.23 2.13 2.62 5.26-.13 6 4 6.11-.35 9.72-11.39 2.75-15.75C19.77 73.9 20.22 87.14 17 89c-2.15-7.82 5.52-17.17 11.75-10.75C34.97 84.68 30.88 95.99 23 95m2-15c4.29 1.02 3.85 12.5-1.01 10.99S19.65 78.73 25 80m-15 6c-.53 3.32 1.64 5.88 2 9 2.43-4.37 2.99 2.8 6-2 2.53 8.38 12.9 10.85 16 2-.5 10.21-12.67 9.18-16 1-1.83 2-3.13 1.65-5 0 1.29 15.91 27.59 23.36 28 3 3.18 10.3-11.78 19.35-18.68 12.68C15.41 105.01 7.51 95.44 10 86m-3 3c-1.47 19.91 29.16 41.5 38 16-5.75 28.37-43.94 4.19-38-16z"/><path id="W" d="M96 63c1.89 5.19 16.98-2.6 22.67-2.33S135.92 54.76 142 55c2.96.9 3.83-2.17 2-4-6.28 3.42-18.49 2.43-24.33 5.67-5.84 3.25-20.93.32-23.67 6.33z"/><path id="X" d="M142 55c-6.08-.24-17.64 5.94-23.33 5.67S97.89 68.19 96 63c0 0-.64.22-1 0-.13.98.11 2.01 0 3-2.21.71-3.46-.9-3-3-1.14 2.66-10.2-1.18-9 4-3.53-2.39-8.92 1.64-12-1 2.28 4.87 3.37 10.66 4 16 .06.49 0 1.5 0 2 3.12.19 7.21-3.68 9.89-4.11 2.69-.42 7.92-.24 11.11.11 5.88-1.95 16.12-7.24 24.01-6.99S138.07 64.46 143 71c2.41-.4 5.08-.54 7-1-1.47-.78-.83-2.56-1-4 2.44 1.19 5.36-2.61 7 0 2.45.54 13.61-1.88 15 3 0-2.98.2-6.03 0-9-.22-3.3-1.23-6.25-2-9-1.76 3.03-12.04 1.3-14.92 3.94-2.88 2.63-9.18.17-12.08.06z"/><path id="Y" d="M51 57c.67 2.31 4.26-.2 5 2-4.39-.91-6.88 2.79-10 5 1 2.68 3.3 4.94 3 8 5.19-1.6 10.93-1.01 16-3-.95-5.16-4.73-9.21-8-13-1.08 1.76-4.11.95-6 1z"/><path id="Z" d="M43 97c.11-14.43-1.83-26.63-14.77-35.23S3.29 71.62 9 84c-4.07-13.84 8.69-29.39 20.75-19.75S40.19 84.27 43 97z"/><path id="a" d="M66 71c.02.46.81 1.56 1 2 1.43 3.39.92 7.27 1 11 3.81-1.7 3.27-4.97 3-9-.21-3.04-.78-5.25-2-8-1.37-3.1-3.26-5.41-5-8 2.21 4.57 1.83 7.37 2 12z"/><path id="b" d="M171 60c.2 2.97 0 6.02 0 9 0 .5.11 1.53 0 2-.8 3.39-2.07 6.65-3 10-.13.46.2 1.6 0 2 .69-.67 2.51-1.3 3-2 .87-2.36 1.72-5.46 2-8 .23-2.05 1.27-12.65 0-14-.13.27-1.81.58-2 1z"/><path id="c" d="M173 73c7.8-1.06 14.85-5.14 23-5v-3c-.82-.93-.59-.94-2-1-5.27-.21-10.73 2.75-16 3 4.45-3.56 11.61-3.43 17-6 .34-.15.78-.7 1-1-6.73-2.3-14.62 3.14-22 3 .76-1.56-.72-3.07-1-4 1.27 1.35.23 11.95 0 14z"/><path id="d" d="M194 64c-.45-.66.55-2.52 1-3-5.39 2.57-12.55 2.44-17 6 5.27-.25 10.73-3.21 16-3z"/><path id="e" d="M92 63c-.46 2.1.79 3.71 3 3 .11-.99-.13-2.02 0-3-1.72-1.06-1.72-.36-3 0z"/><path id="f" d="M16 99c3.81 12.59 19.16 10.68 20.69-1.31 1.54-11.98 2.88-20.81-5.44-29.94C22.93 58.63 8.54 65.42 13 77c-.57-5.42 7.47-8.23 2-10 4.07-2.78 9.93-2.85 14 0-2.15 1.84-7.54-1.98-10 1 6.6-1.53 11.77 2.98 14.69 8.31 2.93 5.32 3.68 12.41 3.08 18.46-.6 6.06-8.71 8.24-4.77 11.23-7.79 4.69-12.16-5.27-16-7z"/><path id="g" d="M69 67c1.22 2.75 1.79 4.96 2 8 .51 2.83 1.92 6.68 2 10 .17-.57 1.9-2.48 2-3-.63-5.34-1.72-11.13-4-16-.52-1.12-1.49-2.1-2-3 .43 1.56-.09 3.36 0 4z"/><path id="h" d="M150 70c2.04-.49 7.24-.64 6-4-1.64-2.61-4.56 1.19-7 0 .17 1.44-.47 3.22 1 4z"/><path id="i" d="M173 73c-.28 2.54-1.13 5.64-2 8-.99 2.67-2.56 6.69-4 9 6.66-2.65 20.9.21 26-6 1.86-3.48 5.85-15.75 3-19v3c-8.15-.14-15.2 3.94-23 5z"/><path id="j" d="M150 70c-1.92.46-4.59.6-7 1-15.12 2.51-32.21 10.61-47 9-3.19-.35-8.42-.53-11.11-.11-2.68.43-6.77 4.3-9.89 4.11 0 2.3.2 4.7 0 7 4.65-7.14 19.67-5.03 27.07-7.93s21.89-2.27 29.15-5.85c7.27-3.58 7.92.31 13.01-2.99s9.82 1.42 13.78-2.22c3.95-3.65 11.46 1.05 12.99-1.01.11-.47 0-1.5 0-2-1.39-4.88-12.55-2.46-15-3 1.24 3.36-3.96 3.51-6 4z"/><path id="k" d="M96 80c14.79 1.61 31.88-6.49 47-9-4.93-6.54-15.1 2.26-22.99 2.01S101.88 78.05 96 80z"/><path id="l" d="M75 91c-.26 3.07-.99 7.04-2 10 4.75-6.72 18.55-7.41 25-6 14.56-4.37 32.86-7.75 49-12 .66-.17 1.36-.73 2-1 2.34-.99 5.51-1.43 8-2 2.69-.62 9.21-2.65 11 1 .93-3.35 2.2-6.61 3-10-1.53 2.06-9.04-2.64-12.99 1.01-3.96 3.64-8.69-1.08-13.78 2.22s-5.74-.59-13.01 2.99c-7.26 3.58-21.75 2.95-29.15 5.85S79.65 83.86 75 91z"/><path id="m" d="M67 73c-.19-.44-.98-1.54-1-2-5.2 1.82-18.09.19-15 8 2.31-3.49 14.6-2.38 16-6z"/><path id="n" d="M32 81c1.6-11-19.53-12.21-15-1-.07-11.1 13.27-6.71 15 1z"/><path id="o" d="M68 84c-5.56 2.49-14.33-1.76-18 4v1c5.74 1.05 13.21-4.46 18-3 2.77.84-.45 13.75-2 17 2.49-3.45 4.6-8.09 6-12 .31-2.03 1.05-3.67 1-6-.08-3.32-1.49-7.17-2-10 .27 4.03.81 7.3-3 9z"/><path id="p" d="M23 95c7.88.99 11.97-10.32 5.75-16.75C22.52 71.83 14.85 81.18 17 89c3.22-1.86 2.77-15.1 9.75-10.75C33.72 82.61 30.11 93.65 24 94c-.74-4.13-3.87-1.38-6-4 .13 4.54 8.14 11.02 12.23 7.23C34.31 93.44 33.74 86.78 35 82c-1.87 2.68-1.23 2.98-3 0 1.41 5.81-1.3 19.74-9 13z"/><path id="q" d="M157 80c.78 5.02-5.7 4.51-9 5 .57-.94 1.15-1.82 1-3-.64.27-1.34.83-2 1-4.93 6.37-16.09 5.78-24.01 7.99C115.08 93.2 103.78 96.27 98 95c-6.45-1.41-20.25-.72-25 6l-1 3c-.35.97-.63 2.07-1 3 4.31-3.95 11.87-4.2 17.67-5.33s13.55-1.83 19.35-3.65c5.81-1.81 13.95-2.92 19.65-4.35s11.66-1.26 17.35-3.65c5.7-2.38 13.73.92 18.98-1.02 1.31-1.9 3.1-4.16 4-6 .2-.4-.13-1.54 0-2-1.79-3.65-8.31-1.62-11-1z"/><path id="r" d="M25 80c-5.35-1.27-5.87 9.48-1.01 10.99S29.29 81.02 25 80z"/><path id="s" d="M149 82c.15 1.18-.43 2.06-1 3 3.3-.49 9.78.02 9-5-2.49.57-5.66 1.01-8 2z"/><path id="t" d="M0 83v3c3.47 15.05 13.46 41.16 33 40 1.28-.43 1.09-2.42 3.03-2.97 1.95-.54 2.79.39 4.97-.03.86-.39 2.52-3.18 3-4 1.06-1.81-1.69-.99 2-2 1.37-1.21 3.09-4.16 3-6-2.39-.34-1.56-.42 0-1 1.01-1.5 1.76-3.23 2-5 .07-.49 0-1 0-1-.21-.42-1.86-.72-2-1-1.59 13.19-18.59 24.96-29.75 14.75C8.09 107.55 3.17 95.59 3 81c-1.88-.52-1.87 1.43-3 2z"/><path id="u" d="M168 83c-.9 1.84-2.69 4.1-4 6-3.15 4.59-6.36 8.01-11 11-13.11 8.46-31.22 7.4-46.07 11.93C92.07 116.45 73.3 118.49 59 121c2.91-.75 4.51-3.61 7-5 1.64-2.14 3.93-6.33 5-9 .37-.93.65-2.03 1-3-.38.22-1.62-.22-2 0-4.66 2.66-4.89 10.99-10.75 14.25S46.38 123.68 40 125c1.57.4 6.36 4.82 8 6 .96.19 2.03-.16 3 0-.21-.38 0-1 0-1h-1c-1.64-.8-3.19-2.43-4-4 33.92-2.67 67.31-15.3 100-18 1.56.56 1.82 1.28 3 2 .99.6 3.03 1.47 4 2 .76.41 2.03 1.43 3 1 .26-.12.66-.98 1-1-2.66-2.95-7.29-4.04-10-7 2.12-.41 3.98-1.39 6-2 4.63-2.45 11.22-8.55 14-13 1.44-2.31 3.01-6.33 4-9-.49.7-2.31 1.33-3 2z"/><path id="v" d="M73 85c.05 2.33-.69 3.97-1 6-.67 4.38-.45 8.86-2 13 .38-.22 1.62.22 2 0 .35-.97.66-2.01 1-3 1.01-2.96 1.74-6.93 2-10 .2-2.3 0-4.7 0-7 0-.5.06-1.51 0-2-.1.52-1.83 2.43-2 3z"/><path id="w" d="M98 95c5.78 1.27 17.08-1.8 24.99-4.01 7.92-2.21 19.08-1.62 24.01-7.99-16.14 4.25-34.44 7.63-49 12z"/><path id="x" d="M167 90c-2.78 4.45-9.37 10.55-14 13 14.72-4.47 31.91-3.84 40-19-5.1 6.21-19.34 3.35-26 6z"/><path id="y" d="M0 154h96c-7.26-2.78-15.57-4.79-23-8-9.07-3.92-17.19-9.36-25-15-1.64-1.18-6.43-5.6-8-6-2.26.47-4.69.86-7 1-19.54 1.16-29.53-24.95-33-40v68z"/><path id="z" d="M10 86c-2.49 9.44 5.41 19.01 12.32 25.68C29.22 118.35 44.18 109.3 41 99c-.41 20.36-26.71 12.91-28-3 1.87 1.65 3.17 2 5 0 3.33 8.18 15.5 9.21 16-1-3.1 8.85-13.47 6.38-16-2-3.01 4.8-3.57-2.37-6 2-.36-3.12-2.53-5.68-2-9z"/><path id="AA" d="M50 89c0 3.13-2.11 11.28-1 13 .63-.19 1.76-1.75 3-1-.21-3.46 1.7-6.4 1-10 3.43 4.55 10.14.47 15 1v-6c-4.79-1.46-12.26 4.05-18 3z"/><path id="AB" d="M49 102s-.2.6 0 1c.14.28 1.79.58 2 1-1.63-2.53 10.89-4.33 13-2-4.36.8-8.77 1.66-13 3-.24 1.77-.99 3.5-2 5 6.79-2.5 12.53-.81 17-7 1.55-3.25 4.77-16.16 2-17v6c-4.86-.53-11.57 3.55-15-1 .7 3.6-1.21 6.54-1 10-1.24-.75-2.37.81-3 1z"/><path id="AC" d="M71 107c-1.07 2.67-3.36 6.86-5 9 6.01-3.5 15.18-4.57 22-5 6.39-2.1 13.02-4.61 20.07-5.93 7.06-1.31 14.29-2.66 21.15-4.85 6.86-2.18 16.14-2.78 20.78-2.22 1.6-.43 3.1-1.6 5-1-.3 1.25-1.83 1.71-2 3 4.64-2.99 7.85-6.41 11-11-5.25 1.94-13.28-1.36-18.98 1.02-5.69 2.39-11.65 2.22-17.35 3.65s-13.84 2.54-19.65 4.35c-5.8 1.82-13.55 2.52-19.35 3.65S75.31 103.05 71 107z"/><path id="AD" d="M7 89c-5.94 20.19 32.25 44.37 38 16-8.84 25.5-39.47 3.91-38-16z"/><path id="AE" d="M66 103c-4.47 6.19-10.21 4.5-17 7-1.56.58-2.39.66 0 1 5.03.72 10.12-2.6 15-3-1.6 8.21-11.38 7.89-18 9-3.69 1.01-.94.19-2 2 3.46-1.87 9.24-.61 13-2-4.02 3.85-11.57 1.94-16 6-2.18.42-3.02-.51-4.97.03-1.94.55-1.75 2.54-3.03 2.97 2.31-.14 4.74-.53 7-1 6.38-1.32 13.39-3.49 19.25-6.75S65.34 106.66 70 104c1.55-4.14 1.33-8.62 2-13-1.4 3.91-3.51 8.55-6 12z"/><path id="AF" d="M88 111c19.98-1.26 41.9-7.66 62-13-4.64-.56-13.92.04-20.78 2.22-6.86 2.19-14.09 3.54-21.15 4.85-7.05 1.32-13.68 3.83-20.07 5.93z"/><path id="AG" d="M150 98c-20.1 5.34-42.02 11.74-62 13-6.82.43-15.99 1.5-22 5-2.49 1.39-4.09 4.25-7 5 14.3-2.51 33.07-4.55 47.93-9.07 14.85-4.53 32.96-3.47 46.07-11.93.17-1.29 1.7-1.75 2-3-1.9-.6-3.4.57-5 1z"/><path id="AH" d="M51 104s.07.51 0 1c4.23-1.34 8.64-2.2 13-3-2.11-2.33-14.63-.53-13 2z"/><path id="AI" d="M50 130c4.19-4.86 16.57-3.21 23.08-5.92 6.5-2.72 17.94-2.59 24.99-5.01 7.06-2.41 16.57-4.05 23.94-5.06 7.37-1.02 16.81-6.58 23.99-6.01-32.69 2.7-66.08 15.33-100 18 .81 1.57 2.36 3.2 4 4z"/><path id="AJ" d="M49 111c.09 1.84-1.63 4.79-3 6 6.62-1.11 16.4-.79 18-9-4.88.4-9.97 3.72-15 3z"/><path id="AK" d="M50 130h1c7 0 14.25-.48 20.68-2.32s12.86-3.6 19.39-4.61c6.54-1 12.66-2.89 19-4 6.35-1.11 13.62-3.84 19.95-4.05 6.34-.2 13.21-5.08 18.98-5.02-1.18-.72-1.44-1.44-3-2-7.18-.57-16.62 4.99-23.99 6.01-7.37 1.01-16.88 2.65-23.94 5.06-7.05 2.42-18.49 2.29-24.99 5.01-6.51 2.71-18.89 1.06-23.08 5.92z"/><path id="AL" d="M51 130s-.21.62 0 1c1.01.17 1.86.82 3 1 10.39 1.59 20.44-3.05 30-5 6.27-1.28 14.06-2.01 20.02-3.98 5.97-1.96 5.66.61 10-2 4.35-2.6 7.19 1.04 8.98.98 1.78-.6 2.51-1.51 5-2 4.59-2.46 10.6-4.85 17-6 1.91-.34 6.78-2.01 8-2-.97-.53-3.01-1.4-4-2-5.77-.06-12.64 4.82-18.98 5.02-6.33.21-13.6 2.94-19.95 4.05-6.34 1.11-12.46 3-19 4-6.53 1.01-12.96 2.77-19.39 4.61S58 130 51 130z"/><path id="AM" d="M145 114c.37.09 1.84 1.44 2 2-6.19 1.85-12.42 3.57-19 4-2.49.49-3.22 1.4-5 2-5.98 2.01-14.1 1.98-20.01 3.99-5.9 2.02-5.43-.22-10 2-4.56 2.23-6.73-.77-8.99-.99-9.56 1.95-19.61 6.59-30 5 3.93 2.18 7.82 5.7 12 8 9.57 1.87 23.86-4.01 34-6 3.29-.65 7.08-.21 10.07-1.93 3-1.72 9.21.6 11.93-1.07.51-1.09-.34-1.37 1-2 4.03-1.88 10.56-1.83 15-3s6.07-.31 10 0c-5.14-2.46 14.64-5.54 9-1 1.61-.69 2.02-1.54 1-3 3.61.71 6.49-1.23 10-1-1.01-.59-2.09-2.42-3-3-3.56.18-6.35-3.65-9-5-.97.43-2.24-.59-3-1-1.22-.01-6.09 1.66-8 2z"/><path id="AN" d="M156 113c2.65 1.35 5.44 5.18 9 5 .18-.01.67-1.01 1-1-2.67-1.32-6.33-3.47-9-5-.34.02-.74.88-1 1z"/><path id="AO" d="M128 120c6.58-.43 12.81-2.15 19-4-.16-.56-1.63-1.91-2-2-6.4 1.15-12.41 3.54-17 6z"/><path id="AP" d="M44 119c-.48.82-2.14 3.61-3 4 4.43-4.06 11.98-2.15 16-6-3.76 1.39-9.54.13-13 2z"/><path id="AQ" d="M165 118c.91.58 1.99 2.41 3 3 6.64 3.91 14.83 5.95 21 11-17.48 7.05-38.17 8.31-57 13s-37.82 9.84-56 0c-.08-.01-3 1-3 1 7.43 3.21 15.74 5.22 23 8h7c28.97-7.25 59.64-11.82 89-19-3.56-9.7-17-13.55-26-18-.33-.01-.82.99-1 1z"/><path id="AR" d="M84 127c2.26.22 4.43 3.22 8.99.99 4.57-2.22 4.1.02 10-2 5.91-2.01 14.03-1.98 20.01-3.99-1.79.06-4.63-3.58-8.98-.98-4.34 2.61-4.03.04-10 2-5.96 1.97-13.75 2.7-20.02 3.98z"/><path id="AS" d="M157 125c-1.8.77-6.95 1.16-9 1-3.93-.31-5.56-1.17-10 0 1.77-.03 5.37-.83 5 2-6.36-.64-15.65 6.31-20 1-1.34.63-.49.91-1 2-2.93 6.26-19.05 3.3-22 3-10.14 1.99-24.43 7.87-34 6 3.18 1.75 6.94 3.75 10 5 18.18 9.84 37.17 4.69 56 0s39.52-5.95 57-13c-6.17-5.05-14.36-7.09-21-11-3.51-.23-6.39 1.71-10 1 1.02 1.46.61 2.31-1 3m14 6c-9.68 2.17-20.28 5.63-30.07 6.93-9.8 1.29-22.2 6.87-29.93 3.07 18.49-1.13 40.53-11.2 60-10z"/><path id="AT" d="M148 126c2.05.16 7.2-.23 9-1 5.64-4.54-14.14-1.46-9 1z"/><path id="AU" d="M123 129c4.35 5.31 13.64-1.64 20-1 .37-2.83-3.23-2.03-5-2-4.44 1.17-10.97 1.12-15 3z"/><path id="AV" d="M171 131c-19.47-1.2-41.51 8.87-60 10 7.73 3.8 20.13-1.78 29.93-3.07 9.79-1.3 20.39-4.76 30.07-6.93z"/><path id="AW" d="M73 146l3-1c-3.06-1.25-6.82-3.25-10-5-4.18-2.3-8.07-5.82-12-8-1.14-.18-1.99-.83-3-1-.97-.16-2.04.19-3 0 7.81 5.64 15.93 11.08 25 15z"/><path id="AX" d="M100 134c2.95.3 19.07 3.26 22-3-2.72 1.67-8.93-.65-11.93 1.07-2.99 1.72-6.78 1.28-10.07 1.93z"/></defs></svg>